<svg xmlns="http://www.w3.org/2000/svg" xmlns:xlink="http://www.w3.org/1999/xlink" width="87.929" height="69.248" viewBox="0 0 87.929 69.248">
  <defs>
    <clipPath id="clip-path">
      <rect id="Rectangle_1833" data-name="Rectangle 1833" width="87.93" height="69.248" fill="none"/>
    </clipPath>
  </defs>
  <g id="wrklk-schd__svg-step-06_icon__dark" clip-path="url(#clip-path)">
    <path id="Path_1220" data-name="Path 1220" d="M76.831,424.917c-2.217-2.349-7.507-3.6-9.289-3.967a.715.715,0,0,1-.564-.6c-.084-.57-.163-1.079-.226-1.458a11.658,11.658,0,0,0,3.311-6.652c1.442-.439,1.731-2.218,1.731-3.328s-.2-1.708-.6-1.894a.992.992,0,0,0-.942.105c.226-2.255.557-7.008-.422-8.766-1.047-1.88-2.32-2.632-4.746-2.016-1.592-.848-2.674-1.921-5.462-1.157a10.046,10.046,0,0,0-5.175,2.941c-1.235,1.6-.961,6.626-.755,8.978a.973.973,0,0,0-.905-.085c-.4.186-.6.786-.6,1.894s.288,2.889,1.729,3.328a10.845,10.845,0,0,0,3.278,6.647c-.084.5-.173,1.047-.24,1.478a.706.706,0,0,1-.561.58c-1.778.365-7.075,1.617-9.292,3.967-2.033,2.154-2.171,10.684-2.171,13.734a82.368,82.368,0,0,1,17.039-1.7A82.192,82.192,0,0,1,79,438.655c.007-3.091-.136-11.584-2.17-13.738" transform="translate(-18.026 -394.926)" fill="#b90066"/>
    <path id="Path_1221" data-name="Path 1221" d="M94.234,436.733c-1.485-.99-3.464-.8-5.218-.574.237-3.585,5.246-7.413,4-17.129-.52-4.056-2.126-6.134-5.916-5.661a9.389,9.389,0,0,0-7.7-1.361c-2.384.512-5.329,1.989-3.786,4.877a10.28,10.28,0,0,0-.732,3.851c.047,3.3-1.239,3.247-1.239,6.385,0,1.654.909,7.4,1.859,8.034,1.168.784,5.3,1.06,6.7,1.087.107.136.063.358-.314.536a17.357,17.357,0,0,1-5.431.837c-1.9.99-7.1,3.889-8.779,6.842-1.088,1.908-2.116,8.7-2.573,12.641,8.229-.674,23.266-1.624,32.352-10.409-.257-1.313-.365-8.048-3.224-9.955" transform="translate(-9.531 -387.853)" fill="#f1d5e2"/>
    <path id="Path_1222" data-name="Path 1222" d="M46.761,437.966l-.007,0a2.13,2.13,0,0,1-1.358-1.79l-.215-1.34a5.428,5.428,0,0,0,1.886-.725c1-.686,3.035-6.343,2.8-8.415-.233-2.045-.591-2.131-.907-3.909-.333-1.87,1.468-3.712.635-6.451a6.456,6.456,0,0,0-7.247-4.264,12.9,12.9,0,0,0-5.01,1.988s-3.716-.634-5.457,1.435c-2.6,3.092-1.248,7.543-1.874,12.01a9.2,9.2,0,0,1-2.676,5.725c2.733,2.318,6.35,3.687,11.656,4.266.142.125.014.414-.384.556-2.872,1.029-5.647.055-8.925,2.3-1.837,1.261-3.169,4.192-3.68,7.73,8.682,8.54,24.117,9.674,32.346,10.346-.384-3.832-1.276-10.315-2.616-12.645-2.217-3.857-6.879-6.011-8.965-6.816" transform="translate(-25.996 -388.179)" fill="#f1d5e2"/>
  </g>
</svg>
