<svg xmlns="http://www.w3.org/2000/svg" xmlns:xlink="http://www.w3.org/1999/xlink" width="72.759" height="88.516" viewBox="0 0 72.759 88.516">
  <defs>
    <clipPath id="clip-path">
      <rect id="Rectangle_1827" data-name="Rectangle 1827" width="72.759" height="88.516" fill="none"/>
    </clipPath>
  </defs>
  <g id="wrklk-schd__svg-step-04_icon__dark" clip-path="url(#clip-path)">
    <path id="Path_1211" data-name="Path 1211" d="M311.742,275.244H266.27a2.841,2.841,0,0,0-2.842,2.842v35.7c1.543-1.08,3.2-2.272,5.239-3.739l.445-.32v-28.8H308.9V333.5H269.112V326.8c-2.2,1.694-4.276,3.1-5.684,4.011v5.539a2.841,2.841,0,0,0,2.842,2.842h45.472a2.841,2.841,0,0,0,2.842-2.842V278.086a2.841,2.841,0,0,0-2.842-2.842" transform="translate(-241.825 -275.244)" fill="#b90066"/>
    <path id="Path_1212" data-name="Path 1212" d="M264.392,325.943v-7.1c5.147-3.167,19.358-13.237,15.557-17.934-1.016-1.258-2.518-1.329-4.611.178-7.118,5.124-10.019,7.278-16.63,11.01-4.594,2.595-4.47,11.7-4.226,15.273L271.5,344.416a36.463,36.463,0,0,0,9.529-3.344c5.934-2.842,10.365-9.445,10.365-9.445H270.076a5.684,5.684,0,0,1-5.684-5.684" transform="translate(-245.631 -264.841)" fill="#f1d5e2"/>
    <path id="Path_1213" data-name="Path 1213" d="M271.883,295.354a2.332,2.332,0,0,0-.5,2.985l9.953,16.61a2.336,2.336,0,0,0,1.994,1.134h.008a2.336,2.336,0,0,0,1.994-1.121l15.2-25.167a2.333,2.333,0,0,0-3.733-2.767l-13.674,15.466-8.216-7.116a2.33,2.33,0,0,0-3.027-.024" transform="translate(-238.616 -270.61)" fill="#b90066"/>
    <rect id="Rectangle_1826" data-name="Rectangle 1826" width="8.109" height="27.337" transform="matrix(0.707, -0.707, 0.707, 0.707, 0, 69.185)" fill="#f1d5e2"/>
  </g>
</svg>
