<svg xmlns="http://www.w3.org/2000/svg" xmlns:xlink="http://www.w3.org/1999/xlink" width="79.576" height="79.575" viewBox="0 0 79.576 79.575">
  <defs>
    <clipPath id="clip-path">
      <rect id="Rectangle_1832" data-name="Rectangle 1832" width="79.576" height="79.576" fill="none"/>
    </clipPath>
  </defs>
  <g id="wrklk-schd__svg-step-05_icon__dark" clip-path="url(#clip-path)">
    <path id="Path_1218" data-name="Path 1218" d="M107.85,257.048a15.624,15.624,0,0,1-.391-1.675,10.866,10.866,0,0,0,2.727-5.562c.492-.284,1.29-.73,1.408-2.8.132-2.329-.227-3.017-1.084-2.976a20.266,20.266,0,0,0,.111-2.977,8.051,8.051,0,0,0-.6-3.632A2.665,2.665,0,0,0,106.672,236a7.771,7.771,0,0,0-5.835-.951c-3.106.688-4.2,1.773-4.6,2.384a6.818,6.818,0,0,0-.642,3.577,24.309,24.309,0,0,0,.085,3.032c-.857-.041-1.216.647-1.084,2.976.118,2.065.942,2.511,1.435,2.8a10.8,10.8,0,0,0,2.673,5.56l0-.021,0,.023h0c-.091.537-.2,1.106-.351,1.673-2.041.716-7.044,2.581-8.51,4.127a4.426,4.426,0,0,0-.668.992,17.585,17.585,0,0,0,27.841,0,4.426,4.426,0,0,0-.668-.992c-1.462-1.543-6.451-3.4-8.5-4.122" transform="translate(-74.676 -222.935)" fill="#b90066"/>
    <path id="Path_1219" data-name="Path 1219" d="M157.147,294.588l-23.894-22.271a21.566,21.566,0,0,1-6.7,4.313c-.4.142-.635.048-.716-.126a43.033,43.033,0,0,0,5.354-6.112,27.623,27.623,0,0,0,4.624-15.512,28.457,28.457,0,1,0-12.91,23.8l24.2,25.959a4.741,4.741,0,0,0,6.143.5,13.631,13.631,0,0,0,4.4-4.4,4.743,4.743,0,0,0-.5-6.144m-49.756-19.219A20.489,20.489,0,1,1,127.88,254.88a20.513,20.513,0,0,1-20.489,20.489" transform="translate(-78.971 -226.46)" fill="#f1d5e2"/>
  </g>
</svg>
