<svg xmlns="http://www.w3.org/2000/svg" xmlns:xlink="http://www.w3.org/1999/xlink" width="75.801" height="68.142" viewBox="0 0 75.801 68.142">
  <defs>
    <clipPath id="clip-path">
      <rect id="Rectangle_1834" data-name="Rectangle 1834" width="75.801" height="68.142" fill="none"/>
    </clipPath>
  </defs>
  <g id="wrklk-schd__svg-step-07_icon__dark" clip-path="url(#clip-path)">
    <path id="Path_1223" data-name="Path 1223" d="M350.888,515.341c-3.935,1.353-9.049,3.429-13.1,5.134a6.176,6.176,0,0,1,.017,1.958c-.59,3.99-4.007,6.514-8.867,6.738-10.989.509-17.812-2.214-19.229-2.788-.406-.165-.452-.365-.415-.551l.016-.013c7.95,1.37,12.961,1.594,19.132.6,4.682-.753,6.379-2.993,6.339-4.84-.038-1.8-1.317-2.895-4.195-3-9.791-.34-15.516-1.432-23.907-2.656a23.613,23.613,0,0,0-16.246,3.733,32.942,32.942,0,0,0-5.741,4.242l8.222,15.834,10.632-4.323a7.111,7.111,0,0,1,3.825-.429l14.581,3.244a14.214,14.214,0,0,0,9.441-1.735l29.1-18.255s-1.427-5.711-9.6-2.9" transform="translate(-284.688 -470.55)" fill="#b90066"/>
    <path id="Path_1224" data-name="Path 1224" d="M317.434,491.837l5.205-.516-.516,11.646v4.969h-4.689Zm2.36,26.037c-2.272,0-3.571-1.3-3.571-3.71,0-2.133,1.206-3.8,3.525-3.8,2.272,0,3.571,1.344,3.571,3.8a3.384,3.384,0,0,1-3.525,3.71m-.023-34.283A21.007,21.007,0,1,0,340.778,504.6a21.006,21.006,0,0,0-21.006-21.007" transform="translate(-278.762 -483.59)" fill="#f1d5e2"/>
  </g>
</svg>
