<svg xmlns="http://www.w3.org/2000/svg" xmlns:xlink="http://www.w3.org/1999/xlink" width="51" height="64" viewBox="0 0 51 64">
  <defs>
    <clipPath id="clip-path">
      <rect id="Rectangle_1831" data-name="Rectangle 1831" width="51" height="64" fill="#a90061"/>
    </clipPath>
  </defs>
  <g id="wrklk-schd__svg-step-03_icon__dark" clip-path="url(#clip-path)">
    <path id="Path_1214" data-name="Path 1214" d="M50.528,19.76,31.518.75A2.561,2.561,0,0,0,29.7,0H2.564A2.563,2.563,0,0,0,0,2.564V61.535A2.564,2.564,0,0,0,2.564,64.1H48.715a2.572,2.572,0,0,0,2.564-2.564V21.573a2.563,2.563,0,0,0-.751-1.813m-1.623,2.493-4.036,1.195v34.24H6.41V6.41H27.829l1.195-4.019c.14-.437.462-.3.462-.3V20.512a1.282,1.282,0,0,0,1.282,1.282H49.186s.156.32-.281.46" transform="translate(0 0)" fill="#a90061"/>
    <path id="Path_1215" data-name="Path 1215" d="M35.973,25.743H13.667V22.667H35.973ZM37.64,21H12v6.41H37.64Z" transform="translate(3.384 5.922)" fill="#a90061"/>
    <path id="Path_1216" data-name="Path 1216" d="M35.973,32.743H13.667V29.667H35.973ZM37.64,28H12v6.41H37.64Z" transform="translate(3.384 7.896)" fill="#a90061"/>
    <path id="Path_1217" data-name="Path 1217" d="M35.973,39.743H13.667V36.667H35.973ZM37.64,35H12v6.41H37.64Z" transform="translate(3.384 9.869)" fill="#a90061"/>
    <rect id="Rectangle_1828" data-name="Rectangle 1828" width="2" height="3" transform="translate(11 27)" fill="#a90061"/>
    <rect id="Rectangle_1829" data-name="Rectangle 1829" width="2" height="2" transform="translate(11 36)" fill="#a90061"/>
    <rect id="Rectangle_1830" data-name="Rectangle 1830" width="2" height="2" transform="translate(11 45)" fill="#a90061"/>
  </g>
</svg>
