<svg xmlns="http://www.w3.org/2000/svg" xmlns:xlink="http://www.w3.org/1999/xlink" width="68.701" height="87.425" viewBox="0 0 68.701 87.425">
  <defs>
    <clipPath id="clip-path">
      <rect id="Rectangle_1825" data-name="Rectangle 1825" width="68.701" height="87.425" fill="none"/>
    </clipPath>
  </defs>
  <g id="wrklk-schd__svg-step-02_icon__dark" clip-path="url(#clip-path)">
    <path id="Path_1208" data-name="Path 1208" d="M412.518,64.552c-.213-.1-.421-.195-.642-.287l-5.92-1.981a1.778,1.778,0,0,1-1.231-1.383c-.128-.58-.2-1.243-.2-1.243A12.026,12.026,0,0,0,407.6,53.12c1.471-.453,1.765-2.291,1.765-3.436s-.2-1.765-.612-1.957a.869.869,0,0,0-.564-.054c.148-2.386.3-7.113-.7-8.89-1.087-1.941-2.532-2.446-5.05-1.81-1.653-.877-2.777-1.744-5.671-.953-2.011.547-4.212,1.444-5.371,2.937-1.252,1.611-1.01,6.312-.8,8.728a.9.9,0,0,0-.628.043c-.411.192-.612.811-.612,1.957s.294,2.983,1.766,3.436c.472,3.929,2.437,6.228,4.857,8.264a5.249,5.249,0,0,0,2.988.874c.108.195.108.426-.321.567a7.49,7.49,0,0,1-5.393-.688c-.02-.01-.034-.02-.054-.03-1.137.3-5.526,1.8-5.526,1.8a13.6,13.6,0,0,0-4.479,2.525c-2.275,2.394-3.16,11.332-3.16,11.332h24.893c.233-3,.956-7.912,3.2-10.275a16.152,16.152,0,0,1,4.392-2.937" transform="translate(-379.538 7.38)" fill="#f1d5e2"/>
    <path id="Path_1209" data-name="Path 1209" d="M437.532,70.055a16.75,16.75,0,0,0-4.426-2.782c-2.45-1.212-5.188-2.285-6.647-2.831a1.644,1.644,0,0,1-1.01-1.31c-.122-.73-.26-1.812-.368-2.724a33.022,33.022,0,0,0,8.023-1,.411.411,0,0,0,.266-.571,39.586,39.586,0,0,1-2.73-9.111c-.557-6.4-.534-17.841-9.3-14.969,0,0-5.565-3.555-10.085,2.392-3.179,4.185-2.4,9.7-2.532,12.779a29.92,29.92,0,0,1-2.635,8.55.422.422,0,0,0,.2.669,36.963,36.963,0,0,0,8.044,1.107c-.071.652-.165,1.412-.27,2.1h0c-.014.1-.028.188-.043.287-.028.169-.057.341-.087.493a1.679,1.679,0,0,1-1.01,1.31c-.614.229-1.459.556-2.407.942l.006,0c-1.309.533-2.816,1.184-4.235,1.886a16.748,16.748,0,0,0-4.426,2.782c-2.5,2.635-2.625,10.834-2.625,10.834h40.925s-.122-8.2-2.625-10.834" transform="translate(-371.454 6.536)" fill="#f1d5e2"/>
    <path id="Path_1210" data-name="Path 1210" d="M380.644,10.305a60.843,60.843,0,0,0-.959,13.161,82.248,82.248,0,0,0,.959,13.163,4.68,4.68,0,0,0,3.835,3.935c5.234.9,13.617.976,16.542.983l12.792,7.815a1.2,1.2,0,0,0,1.819-1.209l-.06-.21-.01.006-3.7-13.07s.232-.212.455.114l4.262,5.908c.86-.1,1.681-.207,2.434-.337a4.68,4.68,0,0,0,3.837-3.935,82.253,82.253,0,0,0,.959-13.163,82.248,82.248,0,0,0-.959-13.161,4.683,4.683,0,0,0-3.837-3.936c-5.754-.983-15.345-.983-17.264-.983s-11.51,0-17.265.983a4.683,4.683,0,0,0-3.835,3.936m20.049,25.576a2.563,2.563,0,0,1-2.865-2.809,2.67,2.67,0,0,1,2.828-2.882,2.6,2.6,0,0,1,2.865,2.882,2.63,2.63,0,0,1-2.828,2.809m3.882-13.171-1.8.979a2.359,2.359,0,0,0-1.515,2.025,4.776,4.776,0,0,0,.72,2.237h-3.567a3.572,3.572,0,0,1-1.05-2.689c0-1.61.757-2.761,2.706-3.916l1.911-1.117c1.516-.872,2.021-1.572,2.021-2.69,0-1.188-1.154-2.062-3.426-2.062a13.873,13.873,0,0,0-5.016.979v-3.53a15.911,15.911,0,0,1,6.062-1.118c4.112,0,6.782,2.1,6.782,5.242,0,2.724-1.046,4.158-3.824,5.66" transform="translate(-379.684 -5.386)" fill="#b90066"/>
  </g>
</svg>
